#!OML:ASF E:\Steps\Project 1\Capture day 1\Session 2\Subject.ASF
:FULLY-SPECIFIED
:DEGREES
246
root 16.0449 17.2398 17.4281 -167.629 -0.0688759 171.461
lowerback -28.2987 -1.05682 -5.06717
upperback 1.06971 0.140375 -0.827994
thorax 16.3238 -0.45097 1.89215
lowerneck -1.46039 4.44951 -1.64739
upperneck 22.287 4.41607 0.60896
head 6.97658 1.32192 0.664702
rclavicle -3.55328e-015 -7.95139e-015
rhumerus -39.1464 -12.8865 -75.1718
rradius 38.3842
rwrist -4.06427
rhand -6.49511 -51.7344
rfingers 7.12502
rthumb 19.3564 279.209
lclavicle -3.55328e-015 -7.95139e-015
lhumerus -39.3692 12.9155 72.1252
lradius 18.6535
lwrist -10.5137
lhand -18.4913 -13.5356
lfingers 7.12502
lthumb 7.79616 16.3006
rfemur -2.05037 10.27 15.361
rtibia 24.5495
rfoot -34.6376 -8.00944
rtoes -23.9337
lfemur -50.4451 -6.15312 -6.92283
ltibia 17.9482
lfoot 13.3742 10.3707
ltoes -26.8631
247
root 16.0029 17.2258 17.3532 -167.784 0.105904 171.454
lowerback -28.2249 -1.01594 -4.88937
upperback 1.07255 0.138806 -0.874071
thorax 16.2935 -0.433473 1.74431
lowerneck -1.39253 2.17251 -1.50507
upperneck 22.3818 5.28403 -0.143698
head 7.03546 3.2029 0.641252
rclavicle 1.55301e-015 7.95139e-016
rhumerus -38.9471 -12.7969 -75.3139
rradius 38.2832
rwrist -3.79519
rhand -6.48351 -51.8302
rfingers 7.12502
rthumb 19.3675 279.114
lclavicle 1.55301e-015 7.95139e-016
lhumerus -39.5091 12.6696 72.1617
lradius 18.8776
lwrist -9.92934
lhand -18.7199 -13.4971
lfingers 7.12502
lthumb 7.57547 16.3472
rfemur -1.70338 10.2502 15.2211
rtibia 24.8106
rfoot -34.6065 -7.92514
rtoes -25.0728
lfemur -50.2317 -6.12577 -6.92043
ltibia 17.8339
lfoot 13.683 10.4449
ltoes -25.1144
248
root 15.9556 17.2121 17.2715 -168.024 0.291302 171.492
lowerback -28.0994 -0.952369 -4.67986
upperback 1.10128 0.151316 -0.858765
thorax 16.2685 -0.407903 1.65342
lowerneck -1.36308 2.10635 -1.51814
upperneck 22.5844 5.26472 -0.268096
head 7.10074 3.19527 0.607292
rclavicle -3.72721e-016 3.65764e-014
rhumerus -38.8533 -12.6947 -75.2792
rradius 38.3797
rwrist -3.52108
rhand -6.4484 -51.8999
rfingers 7.12502
rthumb 19.4013 279.048
lclavicle -3.72721e-016 3.65764e-014
lhumerus -39.6834 12.6335 72.2164
lradius 19.0472
lwrist -9.52028
lhand -18.7997 -13.5083
lfingers 7.12502
lthumb 7.49851 16.3388
rfemur -1.24734 10.2791 15.1003
rtibia 24.9487
rfoot -34.5684 -7.91446
rtoes -26.0326
lfemur -49.9106 -6.32184 -6.75724
ltibia 17.7047
lfoot 13.5857 10.9459
ltoes -22.7136
249
root 15.9172 17.1984 17.195 -168.261 0.328125 171.592
lowerback -27.9661 -0.990241 -4.67321
upperback 1.19377 0.0898563 -0.720624
thorax 16.3186 -0.435714 1.78038
lowerneck -1.38765 2.06748 -1.68769
upperneck 22.6614 5.23203 -0.242218
head 7.1262 3.17043 0.64447
rclavicle 2.23633e-016 7.95139e-016
rhumerus -38.714 -12.294 -75.33
rradius 38.7371
rwrist -3.73712
rhand -6.4534 -52.0074
rfingers 7.12502
rthumb 19.3965 278.94
lclavicle 2.23633e-016 7.95139e-016
lhumerus -39.6625 13.0059 72.1501
lradius 19.0399
lwrist -9.59915
lhand -18.6771 -13.7867
lfingers 7.12502
lthumb 7.61678 16.0562
rfemur -0.613018 10.3295 15.1548
rtibia 24.7563
rfoot -34.4437 -7.51036
rtoes -24.7984
lfemur -49.6476 -6.29556 -6.76072
ltibia 17.6829
lfoot 13.6984 10.945
ltoes -21.564
250
root 15.8784 17.1749 17.1274 -168.175 0.279933 171.98
lowerback -28.015 -0.943085 -4.3351
upperback 1.20091 0.027574 -0.597881
thorax 16.3585 -0.43877 1.70584
lowerneck -1.44473 2.04842 -1.66648
upperneck 22.7448 5.20007 -0.174514
head 7.16214 3.16279 0.664008
rclavicle 5.86415e-015 -5.56597e-015
rhumerus -38.4296 -12.1581 -75.5283
rradius 38.8549
rwrist -3.9216
rhand -6.48172 -52.1494
rfingers 7.12502
rthumb 19.3692 278.795
lclavicle 5.86415e-015 -5.56597e-015
lhumerus -39.5524 13.0575 72.1167
lradius 19.0704
lwrist -9.72836
lhand -18.5951 -13.852
lfingers 7.12502
lthumb 7.69601 15.988
rfemur -0.422746 10.2986 15.5237
rtibia 24.8351
rfoot -34.3528 -7.4233
rtoes -25.0228
lfemur -49.8497 -5.86188 -6.59251
ltibia 17.8175
lfoot 14.0981 10.4866
ltoes -21.3208
251
root 15.8269 17.1679 17.0314 -168.354 0.828542 171.826
lowerback -28.0272 -0.725403 -4.2735
upperback 1.20273 0.308305 -0.702734
thorax 16.3503 -0.307968 1.66799
lowerneck -1.43463 2.01137 -1.65738
upperneck 23.0612 5.19446 -0.0607771
head 7.26168 3.18819 0.707527
rclavicle 8.69683e-016 1.11319e-014
rhumerus -38.3462 -12.0918 -75.6101
rradius 38.8541
rwrist -3.79189
rhand -6.50361 -52.2287
rfingers 7.12502
rthumb 19.3482 278.714
lclavicle 8.69683e-016 1.11319e-014
lhumerus -39.731 12.6354 72.2579
lradius 19.3042
lwrist -9.22517
lhand -18.3154 -13.7296
lfingers 7.12502
lthumb 7.96596 16.1003
rfemur -0.113835 10.4044 15.0464
rtibia 25.1724
rfoot -34.4742 -7.4656
rtoes -27.3693
lfemur -49.2206 -5.89212 -6.65824
ltibia 17.3452
lfoot 14.1162 10.8511
ltoes -21.7263
252
root 15.7852 17.1461 16.9573 -168.305 0.716568 172.063
lowerback -28.0307 -0.780893 -4.0635
upperback 1.20951 0.146996 -0.554816
thorax 16.3719 -0.365414 1.65217
lowerneck -1.44182 2.03334 -1.83939
upperneck 23.1174 5.24855 -0.0421592
head 7.27697 3.20302 0.749208
rclavicle -3.80176e-015 1.59028e-015
rhumerus -37.9805 -11.8654 -75.6703
rradius 38.8544
rwrist -3.63002
rhand -6.48939 -52.2727
rfingers 7.12502
rthumb 19.3618 278.671
lclavicle -3.80176e-015 1.59028e-015
lhumerus -39.77 12.7782 72.3034
lradius 19.4424
lwrist -8.84174
lhand -17.9286 -13.9033
lfingers 7.12502
lthumb 8.33924 15.9121
rfemur 0.186576 10.2498 15.2348
rtibia 25.1408
rfoot -34.357 -7.60373
rtoes -29.2779
lfemur -49.3786 -5.69476 -6.64127
ltibia 17.4695
lfoot 14.6815 10.3007
ltoes -23.5419
253
root 15.7427 17.1322 16.8698 -168.444 0.825276 172.111
lowerback -27.9874 -1.14946 -3.95699
upperback 1.23636 0.15579 -0.402055
thorax 16.3975 -0.1337 1.83216
lowerneck -1.39034 2.01593 -1.87342
upperneck 23.3291 5.34078 -0.3032
head 7.34562 3.23895 0.681819
rclavicle -9.93923e-016 -1.82882e-014
rhumerus -37.7318 -11.4115 -75.6875
rradius 38.8945
rwrist -3.77111
rhand -6.48233 -52.3938
rfingers 7.12502
rthumb 19.3686 278.551
lclavicle -9.93923e-016 -1.82882e-014
lhumerus -40.0002 13.1579 72.3428
lradius 19.5494
lwrist -8.95514
lhand -18.0844 -13.8592
lfingers 7.12502
lthumb 8.18892 15.9621
rfemur 0.75349 10.4861 15.2449
rtibia 25.015
rfoot -34.0435 -7.76582
rtoes -30.2463
lfemur -49.0655 -5.73827 -6.63806
ltibia 17.3404
lfoot 15.1463 10.2071
ltoes -23.6889
254
root 15.7008 17.1162 16.7858 -168.43 1.00912 172.2
lowerback -27.9254 -1.08914 -3.91631
upperback 1.06866 0.226201 -0.38185
thorax 16.163 -0.087238 1.86081
lowerneck -1.10607 1.97878 -1.70357
upperneck 23.7541 5.41516 -0.348962
head 7.44226 3.32542 0.65005
rclavicle -2.01269e-015 1.74931e-014
rhumerus -37.9359 -11.2294 -75.7794
rradius 39.0108
rwrist -3.94214
rhand -6.50205 -52.4492
rfingers 7.12502
rthumb 19.3497 278.494
lclavicle -2.01269e-015 1.74931e-014
lhumerus -40.4256 12.8818 72.354
lradius 19.7519
lwrist -8.8345
lhand -18.4147 -13.5766
lfingers 7.12502
lthumb 7.87004 16.2569
rfemur 0.960544 10.6095 15.2554
rtibia 25.3196
rfoot -33.9166 -8.11834
rtoes -31.2832
lfemur -48.8922 -5.64197 -6.59954
ltibia 17.2017
lfoot 15.6439 10.0899
ltoes -21.856
255
root 15.6515 17.0992 16.7016 -168.303 1.24397 172.279
lowerback -27.9987 -0.995559 -3.63594
upperback 1.11529 0.268817 -0.455135
thorax 16.2542 -0.0459663 1.64303
lowerneck -1.25332 2.13684 -1.87141
upperneck 23.6518 5.55679 -0.110377
head 7.42162 3.38239 0.764307
rclavicle -2.65874e-015 -7.95139e-016
rhumerus -37.4338 -11.2681 -76.059
rradius 38.9604
rwrist -3.95114
rhand -6.48314 -52.3957
rfingers 7.12502
rthumb 19.3679 278.549
lclavicle -2.65874e-015 -7.95139e-016
lhumerus -40.3802 13.0741 72.1549
lradius 19.909
lwrist -8.73909
lhand -18.1263 -13.7579
lfingers 7.12502
lthumb 8.14839 16.065
rfemur 0.959568 10.4168 15.0622
rtibia 25.5461
rfoot -33.7175 -8.37857
rtoes -32.8139
lfemur -48.8949 -5.5235 -6.61284
ltibia 17.1553
lfoot 16.2945 9.78233
ltoes -20.0016
256
root 15.5992 17.0836 16.6161 -168.229 1.34116 172.433
lowerback -28.1565 -0.887356 -3.33463
upperback 1.23826 0.321861 -0.522795
thorax 16.4784 -0.00386383 1.4238
lowerneck -1.37549 2.07426 -1.74922
upperneck 23.6867 5.43797 -0.0621295
head 7.45632 3.33256 0.755032
rclavicle 4.09993e-015 5.56597e-015
rhumerus -36.9327 -11.3813 -76.3613
rradius 39.0369
rwrist -4.05399
rhand -6.43473 -52.4958
rfingers 7.12502
rthumb 19.4144 278.453
lclavicle 4.09993e-015 5.56597e-015
lhumerus -40.282 13.0489 72.0684
lradius 20.1407
lwrist -8.59686
lhand -17.7862 -13.9205
lfingers 7.12502
lthumb 8.47664 15.8894
rfemur 1.1703 10.2596 14.977
rtibia 25.4824
rfoot -33.4892 -8.33385
rtoes -33.0302
lfemur -48.9023 -5.57228 -6.52777
ltibia 17.1882
lfoot 16.9919 9.59321
ltoes -18.9907
257
root 15.5547 17.0653 16.5366 -168.16 1.43151 172.534
lowerback -28.1939 -0.890025 -3.34324
upperback 1.29165 0.311713 -0.484311
thorax 16.5609 -0.0153755 1.46647
lowerneck -1.35996 1.97752 -1.62226
upperneck 23.7954 5.30652 -0.0426899
head 7.49262 3.28616 0.733974
rclavicle 4.96962e-015 -7.15625e-015
rhumerus -36.5831 -11.2565 -76.5994
rradius 39.2221
rwrist -4.1321
rhand -6.3927 -52.9273
rfingers 7.12502
rthumb 19.4548 278.026
lclavicle 4.96962e-015 -7.15625e-015
lhumerus -40.2689 12.7996 72.214
lradius 20.3517
lwrist -8.20753
lhand -17.8883 -13.7156
lfingers 7.12502
lthumb 8.3781 16.0982
rfemur 1.40988 10.2475 14.9317
rtibia 25.4769
rfoot -33.3757 -8.20924
rtoes -32.2744
lfemur -48.8793 -5.3327 -6.68352
ltibia 17.2332
lfoot 17.9951 9.18111
ltoes -20.0577
258
root 15.5085 17.0524 16.4481 -168.207 1.76921 172.397
lowerback -28.0099 -0.885738 -3.542
upperback 1.26459 0.376943 -0.497186
thorax 16.4333 -0.000967589 1.58732
lowerneck -1.31432 2.01927 -1.72936
upperneck 23.8439 5.3495 0.119624
head 7.49299 3.31404 0.807646
rclavicle 5.7896e-015 -1.59028e-015
rhumerus -36.4314 -10.9431 -76.7786
rradius 39.4239
rwrist -4.22899
rhand -6.42555 -52.995
rfingers 7.12502
rthumb 19.4232 277.955
lclavicle 5.7896e-015 -1.59028e-015
lhumerus -40.3816 12.563 72.3109
lradius 20.4348
lwrist -7.66281
lhand -18.0107 -13.7048
lfingers 7.12502
lthumb 8.26 16.1137
rfemur 1.74079 10.3229 14.5417
rtibia 25.4813
rfoot -33.2126 -8.06494
rtoes -32.1182
lfemur -48.5096 -5.12675 -7.0677
ltibia 17.1315
lfoot 18.9399 8.88047
ltoes -22.083
259
root 15.4543 17.0299 16.361 -168.036 1.81839 172.61
lowerback -27.8136 -0.918677 -3.36389
upperback 1.10106 0.246219 -0.363167
thorax 16.1493 -0.0393927 1.58467
lowerneck -1.31706 2.0991 -2.05013
upperneck 23.9965 5.46903 0.360579
head 7.52872 3.37145 0.952122
rclavicle 2.90723e-015 -2.38542e-015
rhumerus -36.4002 -10.6623 -76.738
rradius 39.5054
rwrist -4.15192
rhand -6.41924 -52.9354
rfingers 7.12502
rthumb 19.4293 278.015
lclavicle 2.90723e-015 -2.38542e-015
lhumerus -40.667 12.5804 72.3623
lradius 20.5681
lwrist -7.26992
lhand -17.9097 -13.7849
lfingers 7.12502
lthumb 8.35746 16.0297
rfemur 1.91232 10.3266 14.5624
rtibia 25.5366
rfoot -33.1835 -7.79855
rtoes -31.3852
lfemur -48.6346 -5.17798 -6.94498
ltibia 17.3575
lfoot 19.6121 8.9284
ltoes -22.8688
260
root 15.407 17.0105 16.277 -167.944 1.88706 172.725
lowerback -27.5031 -0.908881 -3.40565
upperback 0.949717 0.258072 -0.328232
thorax 15.8164 -0.0283445 1.65049
lowerneck -1.23435 2.04291 -1.93593
upperneck 24.2359 5.43965 0.379224
head 7.59666 3.38674 0.942963
rclavicle -1.98785e-015 -1.27222e-014
rhumerus -36.4619 -10.8385 -76.6934
rradius 39.5677
rwrist -3.94291
rhand -6.39903 -52.8718
rfingers 7.12502
rthumb 19.4487 278.081
lclavicle -1.98785e-015 -1.27222e-014
lhumerus -40.9555 12.3325 72.39
lradius 20.8258
lwrist -6.91715
lhand -17.7928 -13.5333
lfingers 7.12502
lthumb 8.47031 16.2768
rfemur 2.08182 10.4797 14.6099
rtibia 25.7666
rfoot -33.2425 -7.79259
rtoes -30.8885
lfemur -48.7073 -5.09214 -7.05519
ltibia 17.7313
lfoot 20.1384 8.96797
ltoes -22.1186
